<?xml version="1.0" encoding="UTF-8" standalone="no"?>
<!-- Generator: Adobe Illustrator 16.0.0, SVG Export Plug-In . SVG Version: 6.00 Build 0)  -->

<svg
   xmlns:dc="http://purl.org/dc/elements/1.1/"
   xmlns:cc="http://creativecommons.org/ns#"
   xmlns:rdf="http://www.w3.org/1999/02/22-rdf-syntax-ns#"
   xmlns:svg="http://www.w3.org/2000/svg"
   xmlns="http://www.w3.org/2000/svg"
   xmlns:sodipodi="http://sodipodi.sourceforge.net/DTD/sodipodi-0.dtd"
   xmlns:inkscape="http://www.inkscape.org/namespaces/inkscape"
   version="1.1"
   id="Слой_1"
   x="0px"
   y="0px"
   width="199.424"
   height="251.06163"
   viewBox="1443.422 -239.469 199.42399 251.06164"
   enable-background="new 1443.422 -239.469 1503.056 257.628"
   xml:space="preserve"
   inkscape:version="0.91 r"
   sodipodi:docname="logo_only.svg"><metadata
     id="metadata65"><rdf:RDF><cc:Work
         rdf:about=""><dc:format>image/svg+xml</dc:format><dc:type
           rdf:resource="http://purl.org/dc/dcmitype/StillImage" /><dc:title></dc:title></cc:Work></rdf:RDF></metadata><defs
     id="defs63" /><sodipodi:namedview
     pagecolor="#ffffff"
     bordercolor="#666666"
     borderopacity="1"
     objecttolerance="10"
     gridtolerance="10"
     guidetolerance="10"
     inkscape:pageopacity="0"
     inkscape:pageshadow="2"
     inkscape:window-width="1366"
     inkscape:window-height="742"
     id="namedview61"
     showgrid="false"
     borderlayer="true"
     showborder="true"
     inkscape:showpageshadow="true"
     fit-margin-top="0"
     fit-margin-left="0"
     fit-margin-right="0"
     fit-margin-bottom="0"
     inkscape:zoom="0.1783034"
     inkscape:cx="137.40624"
     inkscape:cy="122.247"
     inkscape:window-x="0"
     inkscape:window-y="1"
     inkscape:window-maximized="1"
     inkscape:current-layer="Слой_1" /><g
     id="g3"
     transform="translate(-2.9296875e-6,6.2994924e-4)"><path
       d="m 1533.115,-239.125 c 15.136,-1.042 30.424,0.291 45.172,3.835 8.046,1.968 16.021,4.509 23.466,8.179 -36.928,-2.785 -74.1,-2.632 -110.983,0.724 -3.131,0.199 -6.234,0.784 -9.373,0.725 1.313,-0.941 2.827,-1.532 4.308,-2.149 14.935,-6.64 31.141,-10.17 47.41,-11.314 z"
       id="path5"
       inkscape:connector-curvature="0"
       style="fill:#fece0c" /><path
       d="m 1443.422,-214.211 c 1.286,-1.083 2.586,-2.163 3.933,-3.186 0.207,8.054 0.027,16.122 0.488,24.167 0.882,23.392 3.39,46.762 8.271,69.669 6.287,28.663 16.93,56.897 34.877,80.373 12.388,16.357 28.275,29.935 46.034,40.161 2.061,1.074 3.957,2.549 6.164,3.282 17.325,-9.091 33.145,-21.24 45.97,-36.062 11.139,-12.817 19.976,-27.532 26.744,-43.084 6.759,-15.541 11.521,-31.884 14.92,-48.472 4.752,-23.033 6.928,-46.536 7.623,-70.012 0,-6.667 0.445,-13.315 0.401,-19.981 1.384,1.037 2.731,2.13 3.999,3.309 l 0,0.065 c -0.12,16.013 -0.555,32.033 -1.979,47.985 -1.901,22.227 -5.187,44.402 -11.197,65.914 -4.524,16.574 -10.746,32.756 -19.304,47.684 -7.84,13.748 -17.605,26.421 -29.139,37.274 -11.344,10.641 -24.268,19.575 -38.066,26.717 -2.434,-0.912 -4.596,-2.466 -6.894,-3.674 -13.552,-7.754 -26.13,-17.292 -36.913,-28.602 -16.768,-17.437 -29.114,-38.829 -37.211,-61.548 -5.969,-16.344 -9.855,-33.366 -12.765,-50.492 -2.689,-16.109 -4.339,-32.388 -5.169,-48.69 -0.497,-4.532 -0.134,-9.11 -0.633,-13.646 -0.144,-6.38 -0.141,-12.766 -0.154,-19.151 z"
       id="path7"
       inkscape:connector-curvature="0"
       style="fill:#2f2e2d" /><path
       d="m 1490.728,-216.291 c 31.274,-1.17 62.619,-1.148 93.867,0.475 13.504,0.613 26.984,1.688 40.455,2.762 0.761,0.216 1.171,0.945 1.664,1.517 -38.704,0.839 -77.365,3.867 -115.72,9.152 -17.111,2.254 -34.112,5.315 -51.05,8.625 -0.253,-5.657 -0.346,-11.318 -0.413,-16.98 -0.085,-0.696 0.087,-1.424 0.737,-1.803 1.106,-0.857 2.166,-1.862 3.479,-2.401 8.996,-0.415 17.986,-0.968 26.981,-1.347 z"
       id="path9"
       inkscape:connector-curvature="0"
       style="fill:#f08322" /><path
       d="m 1597.633,-200.809 c 2.774,-0.027 5.547,-0.189 8.317,-0.415 6.852,-0.042 13.675,-0.632 20.529,-0.577 -0.064,2.706 0.031,5.422 -0.305,8.115 -0.226,3.526 -0.027,7.081 -0.502,10.589 -0.111,2.738 -0.198,5.472 -0.549,8.192 -21.25,2.604 -42.471,5.603 -63.448,9.907 -27.647,5.574 -55.005,12.832 -81.411,22.785 -4.852,1.751 -9.559,3.882 -14.404,5.638 -2.811,-15.666 -4.551,-31.516 -5.433,-47.408 45.216,-9.136 91.168,-14.414 137.206,-16.826 z"
       id="path11"
       inkscape:connector-curvature="0"
       style="fill:#026db6" /><path
       d="m 1619.79,-159.454 c 1.317,-0.217 2.646,-0.345 3.982,-0.424 -2.669,22.185 -6.791,44.36 -14.605,65.36 -1.813,4.597 -3.438,9.303 -5.764,13.669 -35.586,-17.442 -73.082,-30.742 -111.146,-41.65 -3.438,-1.064 -6.976,-1.793 -10.367,-2.997 23.281,-9.478 47.481,-16.56 71.939,-22.276 21.801,-4.853 43.804,-8.856 65.961,-11.682 z"
       id="path13"
       inkscape:connector-curvature="0"
       style="fill:#73b737" /><path
       d="m 1470.967,-114.743 c 0.2,0.114 0.596,0.345 0.792,0.46 27.591,7.21 54.839,15.786 81.458,26.007 15.028,5.749 29.769,12.217 44.311,19.091 -11.757,22.153 -29.82,40.82 -51.277,53.757 -1.139,0.544 -2.175,1.733 -3.458,1.691 -17.148,-9.848 -32.268,-23.268 -43.945,-39.243 -13.18,-17.958 -21.965,-38.811 -27.712,-60.239 -0.086,-0.505 -0.141,-1.013 -0.169,-1.524 z"
       id="path15"
       inkscape:connector-curvature="0"
       style="fill:#019847" /></g></svg>